<svg xmlns="http://www.w3.org/2000/svg" version="1.1" xmlns:xlink="http://www.w3.org/1999/xlink" width="1024" height="1024" x="0" y="0" viewBox="100 100 300 300" style="enable-background:new 100 100 300 300" xml:space="preserve" fill-rule="evenodd" class="">
  <g transform="matrix(1.4999999999999996,0,0,1.4999999999999996,184.4702491760254,173.83374881744385)">
    <g fill="#3f4b5d">
      <path d="M69.121 29.782H28.544a1.25 1.25 0 0 0 0 2.5h40.577a1.25 1.25 0 0 0 0-2.5zM62.142 38.973H30.36a1.25 1.25 0 0 0 0 2.5h31.782a1.25 1.25 0 0 0 0-2.5zM54.108 47.985H33.249a1.25 1.25 0 0 0 0 2.5h20.859a1.251 1.251 0 0 0 0-2.5zM20.599 22.643a4.938 4.938 0 0 0-9.742 0L9.168 32.776a1.784 1.784 0 0 0 1.757 2.074h11.709l-2.035-12.207z" fill="#05b6d3" opacity="1" data-original="#3f4b5d" class=""></path>
      <path d="M69.667 17.267H15.292a5.828 5.828 0 0 0-5.758 4.929L7.909 32.601a3.03 3.03 0 0 0 2.994 3.499h9.696l7.318 48.12a3.74 3.74 0 0 0 3.698 3.178h49.931a3.738 3.738 0 0 0 3.697-4.302l-3.13-20.585a1.252 1.252 0 0 0-1.424-1.048 1.252 1.252 0 0 0-1.048 1.424l3.131 20.584a1.24 1.24 0 0 1-1.226 1.427H31.615a1.24 1.24 0 0 1-1.226-1.054l-7.48-49.182a1.25 1.25 0 0 0-1.235-1.062H10.903c-.353.011-.568-.243-.524-.613l1.625-10.405a3.328 3.328 0 0 1 3.288-2.815h54.375a3.975 3.975 0 0 1 3.93 3.378l2.972 19.54a1.251 1.251 0 0 0 2.472-.376l-2.972-19.54a6.475 6.475 0 0 0-6.402-5.502z" fill="#05b6d3" opacity="1" data-original="#3f4b5d" class=""></path>
      <path d="M49.862 74.51c3.225-.654 16.212-6.721 20.49-10.934a1.252 1.252 0 0 0-.178-1.759 45.625 45.625 0 0 0-.904-.753 1.262 1.262 0 0 1 .491-2.199c2.438-.684 6.386-2.062 10.384-4.534a1.257 1.257 0 0 0 .198-1.979c-.251-.244-.52-.498-.774-.738a1.263 1.263 0 0 1 .173-1.97c4.649-3.233 10.618-9.034 13.76-13.459a.836.836 0 0 0-.646-1.3c-2.994.025-10.219.694-18.557 5.938-10.981 6.906-28.127 34.436-24.437 33.687z" fill="#05b6d3" opacity="1" data-original="#3f4b5d" class=""></path>
      <path d="M46.01 83.125s7.054-17.202 18.405-30.847c4.555-5.476 16.31-16.036 28.474-15.23a1.25 1.25 0 1 0 .166-2.494C80.038 33.691 67.368 44.82 62.493 50.68c-11.59 13.932-18.796 31.496-18.796 31.496a1.25 1.25 0 0 0 2.313.949z" fill="#05b6d3" opacity="1" data-original="#3f4b5d" class=""></path>
    </g>
  </g>
</svg>
