<svg xmlns="http://www.w3.org/2000/svg" viewBox="0 -10 320 90">
  <g fill="#05b6d3" stroke="#05b6d3" stroke-width="0.25" stroke-linecap="round" fill-rule="evenodd">
    <path d="M 46.182 6.436 A 7.669 7.669 0 0 0 45.137 6.161 A 37.531 37.531 0 0 0 44.347 6.025 Q 43.134 5.829 41.757 5.683 A 68.116 68.116 0 0 0 38.725 5.433 Q 35.057 5.209 28.897 5.209 A 123.582 123.582 0 0 0 22.881 5.347 Q 20.059 5.485 17.607 5.761 A 53.169 53.169 0 0 0 12.573 6.553 Q 6.217 7.897 3.109 10.781 Q 0.001 13.665 0.001 18.425 Q 0.001 20.665 0.729 22.429 A 10.368 10.368 0 0 0 0.869 22.753 Q 1.562 24.282 2.577 25.145 A 2.072 2.072 0 0 0 3.407 25.607 A 2.651 2.651 0 0 0 4.145 25.705 Q 5.489 25.705 6.749 24.781 A 4.816 4.816 0 0 0 7.173 24.433 Q 7.481 24.148 7.675 23.851 A 1.908 1.908 0 0 0 8.009 22.793 Q 8.009 22.345 7.785 21.953 Q 6.665 20.217 6.665 18.313 A 6.033 6.033 0 0 1 6.694 17.715 A 4.441 4.441 0 0 1 7.981 14.925 A 4.364 4.364 0 0 1 8.252 14.676 Q 9.18 13.893 10.813 13.337 A 16.891 16.891 0 0 1 12.433 12.881 A 20.684 20.684 0 0 1 12.9 12.778 Q 14.933 12.356 17.856 12.145 A 77.617 77.617 0 0 1 21.057 11.985 Q 20.777 13.329 20.553 14.421 A 559.205 559.205 0 0 0 20.491 14.723 Q 20.4 15.169 20.318 15.57 A 323.347 323.347 0 0 0 20.161 16.353 Q 19.377 20.105 18.593 24.305 Q 17.809 28.505 17.193 32.761 Q 16.857 35.281 16.241 38.697 Q 15.681 42.113 15.261 45.221 A 87.573 87.573 0 0 0 15.079 46.644 Q 14.92 47.991 14.867 48.891 A 13.525 13.525 0 0 0 14.841 49.673 A 4.025 4.025 0 0 0 14.847 49.897 A 2.95 2.95 0 0 0 15.849 52.025 A 3.073 3.073 0 0 0 16.462 52.448 Q 17.361 52.921 18.705 52.921 A 6.217 6.217 0 0 0 19.598 52.859 A 4.723 4.723 0 0 0 21.673 52.053 A 3.035 3.035 0 0 0 22.75 50.735 A 3.646 3.646 0 0 0 23.017 49.561 Q 23.241 46.481 23.913 41.469 Q 24.291 38.65 24.651 36.211 A 264.346 264.346 0 0 1 25.201 32.649 Q 26.937 22.233 29.009 11.929 A 375.954 375.954 0 0 1 29.958 11.942 Q 32.797 11.984 34.904 12.06 A 117.114 117.114 0 0 1 36.429 12.125 Q 38.55 12.23 41.915 12.477 A 540.588 540.588 0 0 1 44.297 12.657 A 10.453 10.453 0 0 0 44.572 12.674 Q 46.601 12.773 47.573 11.985 A 2.465 2.465 0 0 0 48.159 11.294 Q 48.609 10.514 48.609 9.297 A 2.553 2.553 0 0 0 48.342 8.141 A 2.962 2.962 0 0 0 47.741 7.337 A 3.44 3.44 0 0 0 47.108 6.858 Q 46.7 6.615 46.182 6.436 Z"/>
   <path d="M 40.615 52.594 A 3.082 3.082 0 0 0 42.057 52.921 Q 42.897 52.921 43.522 52.704 A 2.501 2.501 0 0 0 44.605 51.997 A 3.286 3.286 0 0 0 44.969 51.48 Q 45.559 50.466 46.033 48.441 Q 46.873 45.025 48.217 41.945 A 39.252 39.252 0 0 1 48.901 40.459 Q 49.402 39.429 49.908 38.565 A 18.477 18.477 0 0 1 50.933 36.989 A 14.653 14.653 0 0 1 51.122 36.735 Q 52.363 35.113 53.145 35.113 Q 53.64 35.113 53.737 35.693 A 1.929 1.929 0 0 1 53.761 36.009 Q 53.761 36.309 53.695 37.036 A 51.064 51.064 0 0 1 53.649 37.521 Q 53.481 38.361 53.481 39.201 A 7.297 7.297 0 0 0 53.603 40.568 A 5.03 5.03 0 0 0 55.021 43.289 A 4.607 4.607 0 0 0 56.076 44.062 Q 56.838 44.471 57.813 44.653 A 9.327 9.327 0 0 0 59.529 44.801 Q 61.881 44.801 63.981 43.653 A 16.93 16.93 0 0 0 64.144 43.563 A 15.114 15.114 0 0 0 67.649 40.881 A 3.656 3.656 0 0 0 67.986 40.471 Q 68.447 39.82 68.636 38.952 A 6.183 6.183 0 0 0 68.769 37.633 Q 68.769 37.066 68.649 36.618 A 2.381 2.381 0 0 0 68.349 35.925 A 1.722 1.722 0 0 0 68.195 35.723 A 1.271 1.271 0 0 0 67.201 35.281 Q 66.417 35.281 65.689 36.009 A 17.521 17.521 0 0 1 64.688 36.94 Q 62.893 38.473 61.657 38.473 A 1.94 1.94 0 0 1 61.6 38.472 Q 60.524 38.441 60.31 37.204 A 4.065 4.065 0 0 1 60.257 36.513 A 3.152 3.152 0 0 1 60.276 36.205 Q 60.333 35.655 60.552 34.494 A 76.03 76.03 0 0 1 60.705 33.713 A 116.721 116.721 0 0 0 60.767 33.362 Q 61.12 31.366 61.191 30.531 A 4.246 4.246 0 0 0 61.209 30.185 Q 61.209 27.356 59.009 26.725 A 5.24 5.24 0 0 0 57.569 26.545 Q 56.356 26.545 54.986 27.1 A 11.612 11.612 0 0 0 53.509 27.833 A 10.629 10.629 0 0 0 52.209 28.734 Q 50.626 30.005 49.001 32.145 Q 46.705 35.169 44.857 39.985 A 57.73 57.73 0 0 1 45.008 38.522 Q 45.186 36.996 45.417 35.841 Q 45.753 34.161 46.313 31.921 Q 46.969 29.471 47.112 28.388 A 3.941 3.941 0 0 0 47.153 27.889 A 2.295 2.295 0 0 0 47.137 27.617 Q 47.07 27.053 46.705 26.825 A 1.239 1.239 0 0 0 46.471 26.714 Q 46.007 26.545 45.137 26.545 A 9.531 9.531 0 0 0 44.122 26.596 Q 43.511 26.662 43.002 26.812 A 4.033 4.033 0 0 0 41.917 27.301 A 3.726 3.726 0 0 0 40.733 28.585 A 5.423 5.423 0 0 0 40.265 29.681 A 43.088 43.088 0 0 0 39.953 30.709 A 45.889 45.889 0 0 0 38.193 43.513 A 48.002 48.002 0 0 0 38.221 45.222 Q 38.351 48.85 39.061 50.681 Q 39.597 52.066 40.615 52.594 Z" id="1" vector-effect="non-scaling-stroke"/>
   <path d="M 67.813 52.489 A 7.715 7.715 0 0 0 70.449 52.921 A 7.572 7.572 0 0 0 75.926 50.592 A 12.685 12.685 0 0 0 77.785 48.217 A 9.336 9.336 0 0 0 78.356 49.507 A 7.121 7.121 0 0 0 80.109 51.661 Q 81.649 52.921 83.497 52.921 A 6.16 6.16 0 0 0 84.642 52.812 Q 85.671 52.618 86.729 52.077 A 11.685 11.685 0 0 0 88.481 50.961 Q 91.057 49.001 93.353 46.145 Q 94.417 44.913 94.417 42.673 A 5.645 5.645 0 0 0 94.393 42.142 Q 94.317 41.337 93.997 40.825 A 1.772 1.772 0 0 0 93.828 40.597 A 1.246 1.246 0 0 0 92.849 40.153 A 1.757 1.757 0 0 0 91.807 40.499 A 2.668 2.668 0 0 0 91.337 40.937 A 101.414 101.414 0 0 1 90.499 41.926 Q 89.18 43.463 88.183 44.482 A 22.034 22.034 0 0 1 87.249 45.389 A 10.134 10.134 0 0 1 86.806 45.769 Q 86.052 46.378 85.419 46.613 A 2.148 2.148 0 0 1 84.673 46.761 A 1.703 1.703 0 0 1 84.549 46.757 A 1.34 1.34 0 0 1 83.581 46.257 A 1.605 1.605 0 0 1 83.467 46.104 Q 83.161 45.631 83.161 44.913 A 10.679 10.679 0 0 1 83.162 44.734 Q 83.205 42.17 84.449 35.953 A 171.922 171.922 0 0 0 84.553 35.398 Q 85.289 31.453 85.289 30.353 Q 85.289 28.776 83.512 28.468 A 5.691 5.691 0 0 0 82.545 28.393 A 14.546 14.546 0 0 0 82.185 28.397 A 12.943 12.943 0 0 0 80.081 28.617 Q 79.801 27.385 79.381 26.909 Q 79.062 26.548 78.278 26.461 A 4.983 4.983 0 0 0 77.729 26.433 Q 73.865 26.433 70.421 28.869 Q 66.977 31.305 64.905 35.309 Q 62.833 39.313 62.833 43.793 A 15.907 15.907 0 0 0 62.834 43.994 Q 62.884 47.943 64.905 50.401 A 6.642 6.642 0 0 0 67.813 52.489 Z M 76.441 41.945 L 78.513 31.641 A 6.556 6.556 0 0 0 74.867 32.867 A 8.549 8.549 0 0 0 74.173 33.405 Q 72.185 35.113 71.009 37.913 Q 69.833 40.713 69.833 43.849 A 6.905 6.905 0 0 0 69.888 44.755 Q 70.029 45.821 70.533 46.425 A 2.288 2.288 0 0 0 72.093 47.245 A 3.277 3.277 0 0 0 72.465 47.265 A 2.254 2.254 0 0 0 73.65 46.912 Q 74.248 46.548 74.817 45.809 A 7.481 7.481 0 0 0 75.73 44.237 Q 76.062 43.478 76.296 42.568 A 14.211 14.211 0 0 0 76.441 41.945 Z" id="2" vector-effect="non-scaling-stroke"/>
   <path d="M 90.553 31.753 L 90.553 29.793 A 5.801 5.801 0 0 1 90.646 28.89 Q 90.861 27.752 91.561 27.217 A 3.041 3.041 0 0 1 92.45 26.759 Q 92.875 26.617 93.399 26.549 A 7.998 7.998 0 0 1 94.417 26.489 Q 95.873 26.489 96.573 27.133 A 1.88 1.88 0 0 1 97.039 27.831 Q 97.162 28.14 97.221 28.53 A 5.152 5.152 0 0 1 97.273 29.289 A 138.249 138.249 0 0 0 97.349 33.691 Q 97.518 38.949 98.057 46.033 Q 100.826 41.925 102.454 39.187 A 60.137 60.137 0 0 0 103.097 38.081 A 7.279 7.279 0 0 1 102.417 36.059 A 10.045 10.045 0 0 1 102.257 34.217 Q 102.257 32.313 103.097 30.521 A 8.053 8.053 0 0 1 104.523 28.395 A 7.36 7.36 0 0 1 105.393 27.609 Q 106.849 26.489 108.697 26.489 A 3.727 3.727 0 0 1 109.989 26.705 A 3.258 3.258 0 0 1 111.329 27.637 A 3.69 3.69 0 0 1 112.052 28.941 Q 112.234 29.497 112.3 30.173 A 8.263 8.263 0 0 1 112.337 30.969 Q 112.337 33.489 110.993 36.737 A 22.617 22.617 0 0 0 112.459 36.607 Q 113.975 36.427 115.979 36.032 A 76.232 76.232 0 0 0 116.649 35.897 L 118.161 35.617 Q 118.329 35.561 118.721 35.561 A 2.013 2.013 0 0 1 119.252 35.627 A 1.424 1.424 0 0 1 120.009 36.121 A 1.927 1.927 0 0 1 120.358 36.825 Q 120.432 37.096 120.45 37.415 A 3.764 3.764 0 0 1 120.457 37.633 Q 120.457 39.369 119.785 40.349 A 3.476 3.476 0 0 1 118.578 41.426 A 4.795 4.795 0 0 1 117.769 41.777 Q 115.193 42.617 112.281 42.617 A 16.112 16.112 0 0 1 108.601 42.207 A 14.587 14.587 0 0 1 107.633 41.945 A 107.98 107.98 0 0 1 105.124 45.815 A 125.335 125.335 0 0 1 104.049 47.377 Q 101.809 50.569 100.185 51.745 Q 98.561 52.921 96.489 52.921 Q 94.214 52.921 92.901 51.162 A 5.311 5.311 0 0 1 92.877 51.129 A 6.436 6.436 0 0 1 92.095 49.672 Q 91.446 48.024 91.225 45.473 Q 90.71 39.471 90.589 34.617 A 115.428 115.428 0 0 1 90.553 31.753 Z" id="3" vector-effect="non-scaling-stroke"/>
   <path d="M 141.54 40.597 A 1.246 1.246 0 0 0 140.561 40.153 A 1.757 1.757 0 0 0 139.519 40.499 A 2.668 2.668 0 0 0 139.049 40.937 Q 136.697 43.793 133.477 45.557 A 19.26 19.26 0 0 1 131.964 46.305 Q 130.888 46.777 129.9 47.03 A 8.744 8.744 0 0 1 127.737 47.321 A 11.137 11.137 0 0 1 127.19 47.308 Q 126.142 47.256 125.292 47.003 A 4.622 4.622 0 0 1 122.417 44.745 A 43.365 43.365 0 0 0 123.271 44.526 Q 127.029 43.521 129.446 42.114 A 11.441 11.441 0 0 0 131.797 40.349 A 11.172 11.172 0 0 0 131.883 40.262 A 9.04 9.04 0 0 0 134.569 33.713 Q 134.569 30.409 132.609 28.477 A 6.458 6.458 0 0 0 129.655 26.817 A 8.878 8.878 0 0 0 127.401 26.545 Q 123.761 26.545 120.877 28.505 A 12.893 12.893 0 0 0 119.349 29.721 A 13.659 13.659 0 0 0 116.369 33.797 Q 114.745 37.129 114.745 40.993 A 15.622 15.622 0 0 0 115.07 44.266 A 10.565 10.565 0 0 0 117.993 49.729 A 9.97 9.97 0 0 0 119.376 50.864 Q 121.134 52.06 123.467 52.561 A 17.412 17.412 0 0 0 127.121 52.921 Q 131.433 52.921 135.213 50.793 A 30.034 30.034 0 0 0 136.2 50.212 Q 137.636 49.331 138.792 48.385 A 16.238 16.238 0 0 0 141.065 46.145 Q 142.129 44.913 142.129 42.673 A 5.645 5.645 0 0 0 142.105 42.142 Q 142.029 41.337 141.709 40.825 A 1.772 1.772 0 0 0 141.54 40.597 Z M 121.521 40.265 L 121.521 40.377 A 17.49 17.49 0 0 0 123.78 39.687 Q 124.926 39.245 125.834 38.67 A 8.842 8.842 0 0 0 126.729 38.025 A 6.071 6.071 0 0 0 127.813 36.887 A 4.2 4.2 0 0 0 128.633 34.385 Q 128.633 33.321 128.045 32.677 A 1.939 1.939 0 0 0 126.869 32.064 A 2.768 2.768 0 0 0 126.449 32.033 Q 124.377 32.033 122.949 34.441 A 9.939 9.939 0 0 0 121.756 37.656 A 13.764 13.764 0 0 0 121.521 40.265 Z" id="4" vector-effect="non-scaling-stroke"/>
   <path d="M 159.796 40.597 A 1.246 1.246 0 0 0 158.817 40.153 A 1.757 1.757 0 0 0 157.775 40.499 A 2.668 2.668 0 0 0 157.305 40.937 Q 155.373 43.231 153.932 44.556 A 14.603 14.603 0 0 1 152.881 45.445 A 6.402 6.402 0 0 1 151.439 46.272 A 6.759 6.759 0 0 1 148.849 46.761 A 4.069 4.069 0 0 1 148.537 46.749 A 2.967 2.967 0 0 1 146.497 45.781 Q 145.601 44.801 145.209 42.505 A 96.905 96.905 0 0 0 148.907 37.099 A 81.09 81.09 0 0 0 155.233 25.089 Q 157.427 19.869 158.319 15.399 A 29.539 29.539 0 0 0 158.929 9.633 A 27.898 27.898 0 0 0 158.929 9.588 Q 158.924 6.712 158.327 4.665 A 8.8 8.8 0 0 0 157.389 2.493 A 6.53 6.53 0 0 0 156.771 1.646 A 4.571 4.571 0 0 0 153.161 0.001 A 7.05 7.05 0 0 0 149.081 1.313 Q 146.825 2.87 144.957 6.273 A 38.884 38.884 0 0 0 144.728 6.695 Q 141.454 12.837 139.749 21.281 Q 137.985 30.017 137.985 36.849 A 38.167 38.167 0 0 0 138.074 39.501 Q 138.243 41.938 138.738 44.017 A 18.524 18.524 0 0 0 140.365 48.441 Q 141.836 51.21 144.281 52.268 A 8.462 8.462 0 0 0 147.673 52.921 Q 151.257 52.921 154.085 51.017 A 21.8 21.8 0 0 0 156.147 49.439 A 25.78 25.78 0 0 0 159.321 46.145 Q 160.385 44.913 160.385 42.673 A 5.645 5.645 0 0 0 160.361 42.142 Q 160.285 41.337 159.965 40.825 A 1.772 1.772 0 0 0 159.796 40.597 Z M 149.587 8.679 A 30.848 30.848 0 0 0 149.017 10.193 Q 147.775 13.746 146.763 18.608 A 112.442 112.442 0 0 0 146.161 21.729 A 87.552 87.552 0 0 0 144.996 30.935 A 75.414 75.414 0 0 0 144.817 34.945 A 74.887 74.887 0 0 0 149.78 25.307 A 65.464 65.464 0 0 0 151.145 21.813 A 44.954 44.954 0 0 0 152.732 16.37 Q 153.353 13.55 153.47 10.976 A 25.974 25.974 0 0 0 153.497 9.801 A 17.645 17.645 0 0 0 153.45 8.464 Q 153.29 6.364 152.573 5.775 A 0.985 0.985 0 0 0 151.929 5.545 Q 150.871 5.545 149.587 8.679 Z" id="5" vector-effect="non-scaling-stroke"/>
   <path d="M 174.385 50.261 A 15.461 15.461 0 0 0 176.984 51.568 Q 180.85 53.089 186.313 53.089 Q 190.644 53.089 194.074 52.144 A 17.879 17.879 0 0 0 199.725 49.533 Q 204.737 45.977 204.737 39.369 A 12.004 12.004 0 0 0 204.584 37.423 A 8.894 8.894 0 0 0 202.917 33.433 Q 201.097 31.025 198.521 29.625 Q 195.945 28.225 191.689 26.489 Q 189.263 25.527 187.579 24.749 A 36.149 36.149 0 0 1 186.201 24.081 A 12.497 12.497 0 0 1 185.431 23.651 A 10.548 10.548 0 0 1 182.925 21.561 A 5.242 5.242 0 0 1 181.975 19.994 A 5.724 5.724 0 0 1 181.609 17.921 A 7.661 7.661 0 0 1 181.619 17.509 Q 181.775 14.614 184.157 12.965 A 8.471 8.471 0 0 1 186.348 11.903 Q 188.484 11.201 191.521 11.201 A 18.015 18.015 0 0 1 192.208 11.214 Q 193.534 11.265 194.679 11.514 A 9.767 9.767 0 0 1 197.233 12.433 A 5.457 5.457 0 0 1 198.141 13.037 A 3.693 3.693 0 0 1 199.529 16.017 A 2.699 2.699 0 0 1 199.528 16.045 Q 199.524 16.425 199.418 17.558 A 103.081 103.081 0 0 1 199.361 18.145 A 9.353 9.353 0 0 0 199.246 18.961 A 11.8 11.8 0 0 0 199.193 20.105 A 2.695 2.695 0 0 0 199.511 21.401 A 3.153 3.153 0 0 0 200.173 22.233 A 3.306 3.306 0 0 0 201.387 22.945 A 3.907 3.907 0 0 0 202.609 23.129 A 4.535 4.535 0 0 0 202.923 23.118 Q 204.763 22.991 205.745 21.337 A 5.093 5.093 0 0 0 205.904 21.047 Q 206.533 19.812 206.724 17.864 A 18.913 18.913 0 0 0 206.809 16.017 A 11.594 11.594 0 0 0 206.743 14.765 A 8.826 8.826 0 0 0 204.765 9.969 A 11.166 11.166 0 0 0 202.463 7.878 A 13.514 13.514 0 0 0 199.305 6.301 Q 195.889 5.097 191.801 5.097 A 34.305 34.305 0 0 0 191.48 5.099 Q 186.194 5.148 182.253 6.833 A 16.978 16.978 0 0 0 179.901 8.055 A 12.989 12.989 0 0 0 176.037 11.705 A 12.087 12.087 0 0 0 174.765 14.075 A 12.818 12.818 0 0 0 173.881 18.873 A 13.272 13.272 0 0 0 174.089 21.275 A 9.646 9.646 0 0 0 175.813 25.341 Q 177.745 27.945 180.461 29.457 Q 182.201 30.426 184.595 31.463 A 84.061 84.061 0 0 0 187.489 32.649 A 143.273 143.273 0 0 1 188.124 32.905 Q 190.023 33.675 191.394 34.299 A 39.457 39.457 0 0 1 192.697 34.917 A 11.831 11.831 0 0 1 193.635 35.44 A 9.761 9.761 0 0 1 195.777 37.213 Q 197.009 38.585 197.009 40.489 Q 197.009 42.414 195.959 43.803 A 6.169 6.169 0 0 1 194.321 45.277 Q 192.473 46.451 189.645 46.818 A 21.591 21.591 0 0 1 186.873 46.985 A 33.755 33.755 0 0 1 186.685 46.985 Q 183.792 46.968 181.726 46.454 A 10.274 10.274 0 0 1 179.733 45.753 Q 178.389 45.103 177.754 44.095 A 3.845 3.845 0 0 1 177.185 42.001 A 8.799 8.799 0 0 1 177.188 41.763 A 7.731 7.731 0 0 1 177.269 40.825 Q 177.332 40.404 177.347 40.173 A 1.989 1.989 0 0 0 177.353 40.041 A 7.091 7.091 0 0 0 177.396 39.799 Q 177.457 39.428 177.488 39.007 A 12.632 12.632 0 0 0 177.521 38.081 Q 177.521 36.849 176.569 36.065 A 3.328 3.328 0 0 0 175.18 35.396 A 4.768 4.768 0 0 0 174.105 35.281 Q 172.033 35.281 170.969 36.905 Q 170.229 38.034 170.003 39.867 A 14.312 14.312 0 0 0 169.905 41.609 A 13.182 13.182 0 0 0 170.062 43.688 A 9.143 9.143 0 0 0 174.385 50.261 Z" id="7" vector-effect="non-scaling-stroke"/>
   <path d="M 211.345 31.865 L 209.161 31.865 A 7.154 7.154 0 0 1 208.4 31.828 Q 207.336 31.713 206.893 31.249 A 1.849 1.849 0 0 1 206.504 30.607 Q 206.398 30.322 206.348 29.968 A 4.91 4.91 0 0 1 206.305 29.289 Q 206.305 26.153 208.825 26.153 L 212.017 26.153 A 58.956 58.956 0 0 1 213.551 19.041 A 48.369 48.369 0 0 1 214.929 14.897 Q 216.889 9.801 219.661 6.777 A 11.413 11.413 0 0 1 221.525 5.118 Q 222.892 4.164 224.352 3.877 A 6.581 6.581 0 0 1 225.625 3.753 Q 227.977 3.753 229.321 5.825 A 7.988 7.988 0 0 1 230.389 8.409 Q 230.63 9.462 230.66 10.681 A 14.221 14.221 0 0 1 230.665 11.033 A 18.944 18.944 0 0 1 225.385 24.192 A 26.617 26.617 0 0 1 223.385 26.153 L 229.657 26.153 A 3.23 3.23 0 0 1 230.115 26.183 Q 230.651 26.26 230.934 26.535 A 0.973 0.973 0 0 1 230.945 26.545 Q 231.279 26.879 231.328 27.703 A 5.013 5.013 0 0 1 231.337 28.001 A 3.211 3.211 0 0 1 229.444 31.072 Q 227.876 31.865 225.009 31.865 L 218.177 31.865 Q 218.091 34.009 218.071 35.43 A 57.086 57.086 0 0 0 218.065 36.233 A 39.203 39.203 0 0 0 218.15 38.928 Q 218.331 41.54 218.893 43.187 A 6.746 6.746 0 0 0 219.437 44.409 A 4.472 4.472 0 0 0 222.637 46.664 A 6.407 6.407 0 0 0 223.777 46.761 Q 226.185 46.761 228.033 45.305 A 19.992 19.992 0 0 0 229.253 44.253 Q 230.668 42.939 232.401 40.937 A 2.668 2.668 0 0 1 232.871 40.499 A 1.757 1.757 0 0 1 233.913 40.153 A 1.246 1.246 0 0 1 234.892 40.597 A 1.772 1.772 0 0 1 235.061 40.825 Q 235.381 41.337 235.457 42.142 A 5.645 5.645 0 0 1 235.481 42.673 Q 235.481 44.913 234.417 46.145 Q 232.009 49.113 229.153 51.017 A 11.381 11.381 0 0 1 223.286 52.904 A 13.91 13.91 0 0 1 222.601 52.921 A 11.288 11.288 0 0 1 217.078 51.65 Q 212.46 49.108 211.456 41.482 A 35.597 35.597 0 0 1 211.177 36.849 Q 211.177 34.385 211.345 31.865 Z M 224.113 9.129 A 0.906 0.906 0 0 0 223.6 9.312 Q 223.038 9.7 222.399 10.911 A 13.157 13.157 0 0 0 222.237 11.229 A 17.568 17.568 0 0 0 221.6 12.7 Q 220.912 14.493 220.277 17.053 Q 219.353 20.777 218.737 25.313 A 20.539 20.539 0 0 0 222.078 21.675 A 17.571 17.571 0 0 0 223.693 18.901 A 20.861 20.861 0 0 0 224.699 16.325 Q 225.345 14.253 225.345 12.433 A 13.535 13.535 0 0 0 225.308 11.395 Q 225.181 9.753 224.611 9.301 A 0.779 0.779 0 0 0 224.113 9.129 Z" id="8" vector-effect="non-scaling-stroke"/>
   <path d="M 260.433 35.889 A 1.151 1.151 0 0 0 259.505 35.449 A 2.244 2.244 0 0 0 259.355 35.454 Q 259.207 35.464 259.041 35.493 A 4.42 4.42 0 0 0 258.721 35.561 Q 255.081 36.513 252.449 36.681 A 15.488 15.488 0 0 0 252.254 35.359 A 12.242 12.242 0 0 0 249.397 29.429 A 8.389 8.389 0 0 0 245.806 27.003 A 9.976 9.976 0 0 0 242.537 26.489 Q 239.065 26.489 236.209 28.365 A 12.104 12.104 0 0 0 234.165 30.053 A 13.48 13.48 0 0 0 231.729 33.573 A 15.441 15.441 0 0 0 230.556 36.929 A 19.06 19.06 0 0 0 230.105 41.161 A 15.832 15.832 0 0 0 230.106 41.405 A 13.75 13.75 0 0 0 231.337 46.985 Q 232.569 49.673 234.949 51.297 A 8.999 8.999 0 0 0 237.845 52.588 A 11.595 11.595 0 0 0 240.689 52.921 A 10.11 10.11 0 0 0 244.357 52.252 A 11.1 11.1 0 0 0 247.801 50.093 A 12.834 12.834 0 0 0 250.548 46.559 A 15.967 15.967 0 0 0 252.001 42.561 A 29.291 29.291 0 0 0 254.47 42.356 A 24.019 24.019 0 0 0 259.393 41.217 Q 260.661 40.823 260.939 39.097 A 6.78 6.78 0 0 0 261.017 38.025 A 5.916 5.916 0 0 0 261.008 37.698 Q 260.958 36.796 260.625 36.177 A 1.769 1.769 0 0 0 260.433 35.889 Z M 242.593 32.425 L 242.313 32.425 A 4.129 4.129 0 0 0 239.223 33.794 A 6.381 6.381 0 0 0 238.589 34.581 A 7.44 7.44 0 0 0 237.614 36.669 Q 237.105 38.36 237.105 40.657 A 12.633 12.633 0 0 0 237.219 42.419 Q 237.476 44.238 238.309 45.361 A 4.953 4.953 0 0 0 239.102 46.217 A 3.097 3.097 0 0 0 241.137 46.985 A 3.969 3.969 0 0 0 243.951 45.83 A 5.447 5.447 0 0 0 244.245 45.529 A 6.052 6.052 0 0 0 245.245 43.977 Q 245.567 43.273 245.785 42.415 A 12.794 12.794 0 0 0 246.009 41.329 Q 244.273 40.153 243.349 38.249 Q 242.425 36.345 242.425 34.217 Q 242.425 33.321 242.593 32.425 Z" id="9" vector-effect="non-scaling-stroke"/>
   <path d="M 258.735 52.594 A 3.082 3.082 0 0 0 260.177 52.921 Q 261.017 52.921 261.642 52.704 A 2.501 2.501 0 0 0 262.725 51.997 A 3.286 3.286 0 0 0 263.089 51.48 Q 263.679 50.466 264.153 48.441 Q 264.993 45.025 266.337 41.945 A 39.252 39.252 0 0 1 267.021 40.459 Q 267.522 39.429 268.028 38.565 A 18.477 18.477 0 0 1 269.053 36.989 A 14.653 14.653 0 0 1 269.242 36.735 Q 270.483 35.113 271.265 35.113 Q 271.76 35.113 271.857 35.693 A 1.929 1.929 0 0 1 271.881 36.009 Q 271.881 36.309 271.815 37.036 A 51.064 51.064 0 0 1 271.769 37.521 Q 271.601 38.361 271.601 39.201 A 7.297 7.297 0 0 0 271.723 40.568 A 5.03 5.03 0 0 0 273.141 43.289 A 4.607 4.607 0 0 0 274.196 44.062 Q 274.958 44.471 275.933 44.653 A 9.327 9.327 0 0 0 277.649 44.801 Q 280.001 44.801 282.101 43.653 A 16.93 16.93 0 0 0 282.264 43.563 A 15.114 15.114 0 0 0 285.769 40.881 A 3.656 3.656 0 0 0 286.106 40.471 Q 286.567 39.82 286.756 38.952 A 6.183 6.183 0 0 0 286.889 37.633 Q 286.889 37.066 286.769 36.618 A 2.381 2.381 0 0 0 286.469 35.925 A 1.722 1.722 0 0 0 286.315 35.723 A 1.271 1.271 0 0 0 285.321 35.281 Q 284.537 35.281 283.809 36.009 A 17.521 17.521 0 0 1 282.808 36.94 Q 281.013 38.473 279.777 38.473 A 1.94 1.94 0 0 1 279.72 38.472 Q 278.644 38.441 278.43 37.204 A 4.065 4.065 0 0 1 278.377 36.513 A 3.152 3.152 0 0 1 278.396 36.205 Q 278.453 35.655 278.672 34.494 A 76.03 76.03 0 0 1 278.825 33.713 A 116.721 116.721 0 0 0 278.887 33.362 Q 279.24 31.366 279.311 30.531 A 4.246 4.246 0 0 0 279.329 30.185 Q 279.329 27.356 277.129 26.725 A 5.24 5.24 0 0 0 275.689 26.545 Q 274.476 26.545 273.106 27.1 A 11.612 11.612 0 0 0 271.629 27.833 A 10.629 10.629 0 0 0 270.329 28.734 Q 268.746 30.005 267.121 32.145 Q 264.825 35.169 262.977 39.985 A 57.73 57.73 0 0 1 263.128 38.522 Q 263.306 36.996 263.537 35.841 Q 263.873 34.161 264.433 31.921 Q 265.089 29.471 265.232 28.388 A 3.941 3.941 0 0 0 265.273 27.889 A 2.295 2.295 0 0 0 265.257 27.617 Q 265.19 27.053 264.825 26.825 A 1.239 1.239 0 0 0 264.591 26.714 Q 264.127 26.545 263.257 26.545 A 9.531 9.531 0 0 0 262.242 26.596 Q 261.631 26.662 261.122 26.812 A 4.033 4.033 0 0 0 260.037 27.301 A 3.726 3.726 0 0 0 258.853 28.585 A 5.423 5.423 0 0 0 258.385 29.681 A 43.088 43.088 0 0 0 258.073 30.709 A 45.889 45.889 0 0 0 256.313 43.513 A 48.002 48.002 0 0 0 256.341 45.222 Q 256.471 48.85 257.181 50.681 Q 257.717 52.066 258.735 52.594 Z" id="10" vector-effect="non-scaling-stroke"/>
   <path d="M 310.297 46.033 L 299.545 53.257 A 104.974 104.974 0 0 1 298.086 60.018 Q 296.34 66.923 293.973 71.485 A 18.263 18.263 0 0 1 292.072 74.466 Q 290.842 76.008 289.429 76.899 A 7.76 7.76 0 0 1 285.209 78.121 A 7.538 7.538 0 0 1 283.064 77.83 A 5.898 5.898 0 0 1 280.561 76.357 A 5.922 5.922 0 0 1 278.832 72.77 A 8.211 8.211 0 0 1 278.769 71.737 A 12.555 12.555 0 0 1 279.364 67.98 A 15.621 15.621 0 0 1 279.973 66.361 Q 281.17 63.631 284.419 60.097 A 48.279 48.279 0 0 1 284.453 60.061 A 47.113 47.113 0 0 1 287.026 57.494 Q 289.788 54.927 293.721 51.913 L 293.889 50.625 Q 294.189 49.039 294.554 46.402 A 212.898 212.898 0 0 0 294.785 44.689 Q 293.665 48.721 291.649 50.821 A 8.39 8.39 0 0 1 290.301 51.973 Q 288.898 52.921 287.393 52.921 A 4.624 4.624 0 0 1 283.801 51.27 A 6.836 6.836 0 0 1 283.277 50.597 A 8.823 8.823 0 0 1 281.934 47.386 A 12.514 12.514 0 0 1 281.681 44.801 A 54.886 54.886 0 0 1 281.848 40.417 A 42.521 42.521 0 0 1 282.241 37.101 A 44.051 44.051 0 0 1 283.162 32.797 A 55.367 55.367 0 0 1 284.089 29.681 A 6.993 6.993 0 0 1 284.504 28.681 Q 284.772 28.164 285.103 27.783 A 3.279 3.279 0 0 1 285.657 27.273 Q 286.574 26.61 288.466 26.551 A 12.18 12.18 0 0 1 288.849 26.545 Q 289.825 26.545 290.326 26.791 A 1.174 1.174 0 0 1 290.557 26.937 Q 291.019 27.318 291.032 28.07 A 2.529 2.529 0 0 1 291.033 28.113 A 1.944 1.944 0 0 1 291.011 28.356 Q 290.934 28.921 290.583 30.431 A 111.401 111.401 0 0 1 290.417 31.137 A 69.445 69.445 0 0 0 289.927 33.052 Q 289.708 33.962 289.542 34.78 A 41.577 41.577 0 0 0 289.521 34.889 Q 289.073 37.185 288.737 39.285 A 35.508 35.508 0 0 0 288.559 40.524 Q 288.48 41.162 288.441 41.711 A 14.205 14.205 0 0 0 288.401 42.729 Q 288.401 44.857 289.577 44.857 A 1.168 1.168 0 0 0 290.105 44.713 Q 290.755 44.381 291.596 43.283 A 12.653 12.653 0 0 0 291.677 43.177 Q 292.815 41.659 294.09 38.725 A 49.878 49.878 0 0 0 294.365 38.081 A 49.484 49.484 0 0 0 295.424 35.299 Q 296.297 32.796 297.137 29.681 A 6.908 6.908 0 0 1 297.463 28.724 Q 297.675 28.234 297.946 27.863 A 3.007 3.007 0 0 1 298.509 27.273 A 2.942 2.942 0 0 1 299.402 26.805 Q 299.813 26.667 300.318 26.602 A 7.584 7.584 0 0 1 301.281 26.545 Q 302.569 26.545 303.073 26.881 A 1.075 1.075 0 0 1 303.517 27.515 Q 303.569 27.704 303.576 27.934 A 2.35 2.35 0 0 1 303.577 28.001 A 8.186 8.186 0 0 1 303.525 28.766 Q 303.343 30.554 302.514 35.378 A 474.262 474.262 0 0 1 302.121 37.633 L 300.665 46.649 A 168.022 168.022 0 0 1 306.747 42.269 A 144.854 144.854 0 0 1 309.065 40.713 A 4.036 4.036 0 0 1 309.503 40.477 Q 309.735 40.371 309.948 40.318 A 1.674 1.674 0 0 1 310.353 40.265 A 1.224 1.224 0 0 1 311.325 40.718 A 1.833 1.833 0 0 1 311.501 40.965 Q 311.878 41.594 311.916 42.517 A 5.118 5.118 0 0 1 311.921 42.729 A 6.877 6.877 0 0 1 311.882 43.479 Q 311.798 44.245 311.529 44.745 A 3.223 3.223 0 0 1 310.926 45.531 A 4.437 4.437 0 0 1 310.297 46.033 Z M 285.825 72.689 Q 287.225 72.689 288.961 69.441 A 20.007 20.007 0 0 0 289.924 67.308 Q 291.178 64.096 292.433 58.633 Q 289.626 61.002 287.828 63.099 A 20.066 20.066 0 0 0 286.189 65.269 A 16.809 16.809 0 0 0 285.191 67.025 Q 284.753 67.926 284.52 68.747 A 6.459 6.459 0 0 0 284.257 70.505 A 4.094 4.094 0 0 0 284.308 71.172 Q 284.368 71.535 284.498 71.833 A 2.216 2.216 0 0 0 284.621 72.073 A 1.204 1.204 0 0 0 285.502 72.663 A 1.937 1.937 0 0 0 285.825 72.689 Z" id="11" vector-effect="non-scaling-stroke"/>
</g>
</svg>