<svg xmlns="http://www.w3.org/2000/svg" enable-background="new 0 0 32 32" viewBox="-9.6 -9.6 51.2 51.2" preserveAspectRatio="xMidYMid meet" id="Emotion">
  <g fill="#000000" class="color000000 svgShape">
    <g fill="#000000" class="color000000 svgShape">
      <g fill="#000000" class="color000000 svgShape">
        <g fill="#000000" class="color000000 svgShape">
          <g fill="#000000" class="color000000 svgShape">
            <path fill="#7b944c" d="M20,15.725c0.41,0,0.75,0.34,0.75,0.75s-0.34,0.75-0.75,0.75c-0.41,0-0.75-0.34-0.75-0.75
						S19.59,15.725,20,15.725z" class="color263238 svgShape"></path>
          </g>
        </g>
        <g fill="#000000" class="color000000 svgShape">
          <g fill="#000000" class="color000000 svgShape">
            <path fill="#7b944c" d="M9,15.725c0.41,0,0.75,0.34,0.75,0.75s-0.34,0.75-0.75,0.75c-0.41,0-0.75-0.34-0.75-0.75
						S8.59,15.725,9,15.725z" class="color263238 svgShape"></path>
          </g>
        </g>
      </g>
    </g>
    <g fill="#000000" class="color000000 svgShape">
      <g fill="#000000" class="color000000 svgShape">
        <g fill="#000000" class="color000000 svgShape">
          <path fill="#7b944c" d="M22,7c-1.103,0-2-0.897-2-2V3c0-1.103,0.897-2,2-2s2,0.897,2,2v1.5C24,4.776,23.776,5,23.5,5
					S23,4.776,23,4.5V3c0-0.552-0.448-1-1-1s-1,0.448-1,1v2c0,0.552,0.448,1,1,1c0.276,0,0.5,0.224,0.5,0.5S22.276,7,22,7z" class="color263238 svgShape"></path>
        </g>
      </g>
      <g fill="#000000" class="color000000 svgShape">
        <g fill="#000000" class="color000000 svgShape">
          <path fill="#7b944c" d="M8,7C6.897,7,6,6.103,6,5V3c0-1.103,0.897-2,2-2s2,0.897,2,2v1.5C10,4.776,9.776,5,9.5,5
					S9,4.776,9,4.5V3c0-0.552-0.448-1-1-1S7,2.448,7,3v2c0,0.552,0.448,1,1,1c0.276,0,0.5,0.224,0.5,0.5S8.276,7,8,7z" class="color263238 svgShape"></path>
        </g>
      </g>
      <g fill="#000000" class="color000000 svgShape">
        <g fill="#000000" class="color000000 svgShape">
          <g fill="#000000" class="color000000 svgShape">
            <path fill="#7b944c" d="M29.5,28.975c-0.276,0-0.5-0.224-0.5-0.5V5.5C29,5.225,28.775,5,28.5,5H24
						c-0.276,0-0.5-0.224-0.5-0.5S23.724,4,24,4h4.5C29.327,4,30,4.673,30,5.5v22.975C30,28.751,29.776,28.975,29.5,28.975z" class="color263238 svgShape"></path>
          </g>
        </g>
        <g fill="#000000" class="color000000 svgShape">
          <g fill="#000000" class="color000000 svgShape">
            <g fill="#000000" class="color000000 svgShape">
              <path fill="#7b944c" d="M20.5,5h-12C8.224,5,8,4.776,8,4.5S8.224,4,8.5,4h12C20.776,4,21,4.224,21,4.5
							S20.776,5,20.5,5z" class="color263238 svgShape"></path>
            </g>
          </g>
          <g fill="#000000" class="color000000 svgShape">
            <g fill="#000000" class="color000000 svgShape">
              <path fill="#7b944c" d="M26.5,30h-23C2.673,30,2,29.327,2,28.5v-19C2,9.224,2.224,9,2.5,9S3,9.224,3,9.5v19
							C3,28.775,3.225,29,3.5,29h23c0.275,0,0.5-0.225,0.5-0.5v-23C27,5.225,26.775,5,26.5,5h-4C22.224,5,22,4.776,22,4.5
							S22.224,4,22.5,4h4C27.327,4,28,4.673,28,5.5v23C28,29.327,27.327,30,26.5,30z" class="color263238 svgShape"></path>
            </g>
          </g>
          <g fill="#000000" class="color000000 svgShape">
            <g fill="#000000" class="color000000 svgShape">
              <path fill="#7b944c" d="M25.501,10H2.5C2.224,10,2,9.776,2,9.5v-4C2,4.673,2.673,4,3.5,4h3C6.776,4,7,4.224,7,4.5
							S6.776,5,6.5,5h-3C3.225,5,3,5.225,3,5.5V9h22.501c0.276,0,0.5,0.224,0.5,0.5S25.777,10,25.501,10z" class="color263238 svgShape"></path>
            </g>
          </g>
        </g>
      </g>
      <g fill="#000000" class="color000000 svgShape">
        <g fill="#000000" class="color000000 svgShape">
          <g fill="#000000" class="color000000 svgShape">
            <path fill="#7b944c" d="M16,19.975c-0.276,0-0.5-0.224-0.5-0.5c0-0.552-0.448-1-1-1s-1,0.448-1,1
						c0,0.276-0.224,0.5-0.5,0.5s-0.5-0.224-0.5-0.5c0-1.103,0.897-2,2-2s2,0.897,2,2C16.5,19.751,16.276,19.975,16,19.975z" class="color263238 svgShape"></path>
          </g>
        </g>
        <g fill="#000000" class="color000000 svgShape">
          <g fill="#000000" class="color000000 svgShape">
            <g fill="#000000" class="color000000 svgShape">
              <path fill="#7b944c" d="M20,17.725c-0.689,0-1.25-0.561-1.25-1.25s0.561-1.25,1.25-1.25s1.25,0.561,1.25,1.25
							S20.689,17.725,20,17.725z M20,16.225c-0.133,0-0.25,0.117-0.25,0.25s0.117,0.25,0.25,0.25s0.25-0.117,0.25-0.25
							S20.133,16.225,20,16.225z" class="color263238 svgShape"></path>
            </g>
          </g>
          <g fill="#000000" class="color000000 svgShape">
            <g fill="#000000" class="color000000 svgShape">
              <path fill="#7b944c" d="M9,17.725c-0.689,0-1.25-0.561-1.25-1.25s0.561-1.25,1.25-1.25s1.25,0.561,1.25,1.25
							S9.689,17.725,9,17.725z M9,16.225c-0.133,0-0.25,0.117-0.25,0.25s0.117,0.25,0.25,0.25s0.25-0.117,0.25-0.25
							S9.133,16.225,9,16.225z" class="color263238 svgShape"></path>
            </g>
          </g>
        </g>
      </g>
    </g>
  </g>
</svg>
